<svg width="25" height="27" viewBox="0 0 25 27" fill="none" xmlns="http://www.w3.org/2000/svg">
<path d="M12.5 27C10.7708 27 9.14583 26.6454 7.625 25.9362C6.10417 25.2279 4.78125 24.2663 3.65625 23.0513C2.53125 21.8363 1.64083 20.4075 0.985 18.765C0.328333 17.1225 0 15.3675 0 13.5C0 11.6325 0.328333 9.8775 0.985 8.235C1.64083 6.5925 2.53125 5.16375 3.65625 3.94875C4.78125 2.73375 6.10417 1.77165 7.625 1.06245C9.14583 0.35415 10.7708 0 12.5 0C14.2292 0 15.8542 0.35415 17.375 1.06245C18.8958 1.77165 20.2188 2.73375 21.3438 3.94875C22.4688 5.16375 23.3592 6.5925 24.015 8.235C24.6717 9.8775 25 11.6325 25 13.5C25 15.3675 24.6717 17.1225 24.015 18.765C23.3592 20.4075 22.4688 21.8363 21.3438 23.0513C20.2188 24.2663 18.8958 25.2279 17.375 25.9362C15.8542 26.6454 14.2292 27 12.5 27ZM13.75 24.1987C16.2292 23.8612 18.3075 22.6854 19.985 20.6712C21.6617 18.6579 22.5 16.2675 22.5 13.5C22.5 10.7325 21.6617 8.34165 19.985 6.32745C18.3075 4.31415 16.2292 3.13875 13.75 2.80125V24.1987Z" fill="black"/>
</svg>
