<svg width="24" height="19" viewBox="0 0 24 19" fill="none" xmlns="http://www.w3.org/2000/svg">
<path d="M14.7702 18.7114V10.7896H11.791V8.96143H19.5368V10.7896H16.5577V18.7114H14.7702ZM20.1327 18.7114V13.8364H18.3452V12.0083H23.7077V13.8364H21.9202V18.7114H20.1327Z" fill="black"/>
<path fill-rule="evenodd" clip-rule="evenodd" d="M0 1.21592C0 0.893439 0.127306 0.584165 0.353913 0.356135C0.580519 0.128106 0.887863 0 1.20833 0H6.04167C10.7131 0 14.5 3.8107 14.5 8.51145C14.5 13.2122 10.7131 17.0229 6.04167 17.0229H1.20833C0.887863 17.0229 0.580519 16.8948 0.353913 16.6668C0.127306 16.4387 0 16.1295 0 15.807V1.21592ZM2.41667 2.43184V14.5911H6.04167C9.37848 14.5911 12.0833 11.8692 12.0833 8.51145C12.0833 5.15368 9.37848 2.43184 6.04167 2.43184H2.41667Z" fill="black"/>
</svg>
