<svg width="24" height="25" viewBox="0 0 24 25" fill="none" xmlns="http://www.w3.org/2000/svg">
<path d="M10.1694 14.4069C10.7017 14.9344 10.7017 15.7999 10.1694 16.3273C9.66302 16.8548 8.83209 16.8548 8.32575 16.3273C7.10971 15.0587 6.4267 13.3393 6.4267 11.5465C6.4267 9.75381 7.10971 8.03435 8.32575 6.76574L12.9218 1.97817C14.1397 0.711468 15.7904 0 17.5114 0C19.2324 0 20.8831 0.711468 22.101 1.97817C23.317 3.24678 24 4.96624 24 6.75898C24 8.55172 23.317 10.2712 22.101 11.5398L20.1665 13.5549C20.1794 12.4459 20.0107 11.3369 19.6471 10.282L20.2573 9.63287C20.6213 9.25783 20.9103 8.81131 21.1075 8.31917C21.3047 7.82703 21.4062 7.29903 21.4062 6.76574C21.4062 6.23245 21.3047 5.70445 21.1075 5.21231C20.9103 4.72017 20.6213 4.27365 20.2573 3.89861C19.8973 3.51947 19.4686 3.21849 18.9962 3.01307C18.5237 2.80765 18.0168 2.70188 17.5049 2.70188C16.9929 2.70188 16.4861 2.80765 16.0136 3.01307C15.5411 3.21849 15.1125 3.51947 14.7524 3.89861L10.1694 8.67265C9.8054 9.0477 9.51645 9.49421 9.31925 9.98635C9.12205 10.4785 9.02051 11.0065 9.02051 11.5398C9.02051 12.0731 9.12205 12.6011 9.31925 13.0932C9.51645 13.5854 9.8054 14.0319 10.1694 14.4069ZM13.8306 8.67265C14.337 8.14521 15.1679 8.14521 15.6743 8.67265C16.8903 9.94126 17.5733 11.6607 17.5733 13.4535C17.5733 15.2462 16.8903 16.9657 15.6743 18.2343L11.0782 23.0218C9.86033 24.2885 8.20965 25 6.48862 25C4.76759 25 3.11691 24.2885 1.89905 23.0218C0.683009 21.7532 0 20.0338 0 18.241C0 16.4483 0.683009 14.7288 1.89905 13.4602L3.83355 11.4451C3.82056 12.5541 3.98935 13.6631 4.35288 14.7315L3.74266 15.3671C3.3787 15.7422 3.08975 16.1887 2.89255 16.6808C2.69535 17.173 2.59381 17.701 2.59381 18.2343C2.59381 18.7676 2.69535 19.2955 2.89255 19.7877C3.08975 20.2798 3.3787 20.7263 3.74266 21.1014C4.10271 21.4805 4.53136 21.7815 5.00382 21.9869C5.47627 22.1923 5.98315 22.2981 6.49511 22.2981C7.00707 22.2981 7.51395 22.1923 7.9864 21.9869C8.45886 21.7815 8.88751 21.4805 9.24756 21.1014L13.8306 16.3273C14.1946 15.9523 14.4836 15.5058 14.6808 15.0136C14.878 14.5215 14.9795 13.9935 14.9795 13.4602C14.9795 12.9269 14.878 12.3989 14.6808 11.9068C14.4836 11.4146 14.1946 10.9681 13.8306 10.5931C13.7045 10.47 13.604 10.3213 13.5353 10.1561C13.4666 9.99097 13.4311 9.81287 13.4311 9.63287C13.4311 9.45287 13.4666 9.27478 13.5353 9.10961C13.604 8.94445 13.7045 8.79573 13.8306 8.67265Z" fill="black"/>
</svg>
