<svg width="22" height="23" viewBox="0 0 22 23" fill="none" xmlns="http://www.w3.org/2000/svg">
<path d="M17.2386 23C17.1129 23.0007 16.9883 22.9756 16.872 22.9259C16.7556 22.8763 16.6498 22.8032 16.5605 22.7107L10.7064 16.5867L7.52626 21.5737C7.42499 21.7357 7.28079 21.8635 7.11122 21.9414C6.94166 22.0193 6.75405 22.044 6.57127 22.0126C6.39223 21.9847 6.22446 21.9043 6.0875 21.7807C5.95055 21.6571 5.85005 21.4954 5.79772 21.3144L0.0677416 1.36635C-0.00036633 1.1877 -0.0175741 0.99229 0.0181906 0.803659C0.0539552 0.615027 0.141168 0.441214 0.269326 0.30315C0.397483 0.165086 0.561123 0.0686569 0.740539 0.0254745C0.919956 -0.0177079 1.1075 -0.00580259 1.28059 0.059757L20.3805 6.04416C20.5538 6.09882 20.7086 6.20378 20.827 6.34681C20.9454 6.48985 21.0224 6.66507 21.049 6.85206C21.0791 7.04296 21.0555 7.23889 20.9809 7.41599C20.9063 7.59308 20.7839 7.74369 20.6288 7.84946L15.8538 11.1708L21.7175 17.2849C21.807 17.3776 21.8781 17.4879 21.9266 17.6095C21.975 17.731 22 17.8614 22 17.993C22 18.1247 21.975 18.2551 21.9266 18.3766C21.8781 18.4982 21.807 18.6085 21.7175 18.7012L17.8975 22.6908C17.7251 22.88 17.4885 22.991 17.2386 23ZM17.2386 20.5962L19.712 18.013L12.8742 10.8816L17.888 7.39066L2.42658 2.54329L7.06787 18.6912L10.4104 13.4549L17.2386 20.5962Z" fill="black"/>
</svg>
