<svg width="19" height="27" viewBox="0 0 19 27" fill="none" xmlns="http://www.w3.org/2000/svg">
<path d="M2.78245 7.90817L9.5 0L16.2176 7.90817C17.5461 9.47225 18.4509 11.465 18.8175 13.6344C19.184 15.8039 18.9959 18.0525 18.2768 20.0961C17.5578 22.1397 16.3402 23.8863 14.7779 25.1152C13.2156 26.3441 11.3789 27 9.5 27C7.62108 27 5.78436 26.3441 4.2221 25.1152C2.65983 23.8863 1.4422 22.1397 0.72316 20.0961C0.00412389 18.0525 -0.184014 15.8039 0.182536 13.6344C0.549086 11.465 1.45386 9.47225 2.78245 7.90817ZM4.275 9.66526C3.24129 10.8821 2.53739 12.4325 2.25238 14.1204C1.96737 15.8083 2.11405 17.5578 2.67386 19.1475C3.23368 20.7372 4.18147 22.0957 5.39731 23.0511C6.61315 24.0065 8.0424 24.5159 9.50422 24.5148L9.5 3.51419L4.275 9.66526Z" fill="black"/>
</svg>
