<svg width="21" height="24" viewBox="0 0 21 24" fill="none" xmlns="http://www.w3.org/2000/svg">
<path fill-rule="evenodd" clip-rule="evenodd" d="M4.30682 15.7222C4.51773 15.9644 4.63621 16.2929 4.63621 16.6354C4.63621 16.9779 4.51773 17.3064 4.30682 17.5486L3.84107 18.0833H16.4096L15.9438 17.5486C15.8364 17.4294 15.7507 17.2869 15.6917 17.1293C15.6327 16.9717 15.6017 16.8022 15.6004 16.6307C15.5991 16.4592 15.6276 16.2891 15.6841 16.1304C15.7407 15.9717 15.8242 15.8274 15.9299 15.7062C16.0355 15.5849 16.1611 15.489 16.2994 15.424C16.4376 15.3591 16.5858 15.3264 16.7351 15.3279C16.8845 15.3294 17.0321 15.365 17.1694 15.4327C17.3067 15.5004 17.4308 15.5988 17.5346 15.7222L19.9207 18.4605C20.0253 18.5805 20.1083 18.7229 20.1649 18.8797C20.2215 19.0365 20.2506 19.2046 20.2506 19.3744C20.2506 19.5441 20.2215 19.7122 20.1649 19.869C20.1083 20.0258 20.0253 20.1682 19.9207 20.2882L17.5346 23.0278C17.3224 23.2631 17.0382 23.3933 16.7432 23.3904C16.4483 23.3874 16.1661 23.2516 15.9575 23.0121C15.7489 22.7726 15.6306 22.4486 15.6281 22.11C15.6255 21.7713 15.7389 21.445 15.9438 21.2014L16.4096 20.6667H3.84107L4.30682 21.2014C4.41427 21.3206 4.49998 21.4631 4.55894 21.6207C4.6179 21.7783 4.64893 21.9478 4.65023 22.1193C4.65153 22.2908 4.62306 22.4609 4.5665 22.6196C4.50993 22.7783 4.4264 22.9226 4.32077 23.0438C4.21514 23.1651 4.08953 23.261 3.95127 23.326C3.81301 23.3909 3.66487 23.4236 3.5155 23.4221C3.36612 23.4206 3.2185 23.385 3.08124 23.3173C2.94399 23.2496 2.81985 23.1512 2.71607 23.0278L0.329947 20.2895C0.225349 20.1695 0.14237 20.0271 0.0857553 19.8703C0.0291405 19.7135 0 19.5454 0 19.3756C0 19.2059 0.0291405 19.0378 0.0857553 18.881C0.14237 18.7242 0.225349 18.5818 0.329947 18.4618L2.71607 15.7222C2.92704 15.48 3.21314 15.344 3.51145 15.344C3.80976 15.344 4.09585 15.48 4.30682 15.7222ZM13.5003 4.10462e-08C13.7759 4.17755e-05 14.0418 0.116193 14.2477 0.326424C14.4537 0.536655 14.5852 0.826342 14.6174 1.14054L14.6253 1.29167V5.60196C15.2342 5.27098 15.9068 5.12488 16.5789 5.17763C17.251 5.23039 17.9 5.48023 18.464 5.90328C19.0279 6.32632 19.4879 6.90841 19.7999 7.59388C20.112 8.27935 20.2656 9.04527 20.2462 9.8184C20.2267 10.5915 20.0349 11.346 19.6889 12.0096C19.3429 12.6733 18.8545 13.224 18.2702 13.6089C17.6859 13.9939 17.0254 14.2004 16.3518 14.2085C15.6782 14.2167 15.014 14.0263 14.4228 13.6555C14.2926 13.8709 14.1083 14.0356 13.8945 14.1277C13.6807 14.2198 13.4476 14.235 13.2261 14.1712C13.0046 14.1073 12.8053 13.9676 12.6547 13.7705C12.5041 13.5733 12.4094 13.3282 12.3832 13.0678L12.3753 12.9167V1.29167C12.3753 0.949095 12.4938 0.620555 12.7048 0.37832C12.9158 0.136086 13.202 4.10462e-08 13.5003 4.10462e-08ZM5.62532 4.10462e-08C5.98868 -7.99066e-05 6.3448 0.11663 6.65337 0.336918C6.96195 0.557206 7.21065 0.872274 7.37132 1.24646L7.43995 1.426L11.1738 12.4491C11.2755 12.7556 11.2718 13.0952 11.1635 13.3987C11.0551 13.7022 10.8502 13.9471 10.5904 14.0835C10.3305 14.2199 10.0352 14.2377 9.76435 14.1333C9.4935 14.0289 9.2674 13.81 9.13195 13.5212L9.07682 13.3843L8.04295 10.3333H3.2077L2.17382 13.3843C2.06966 13.691 1.8674 13.9405 1.60839 14.0818C1.34937 14.223 1.05315 14.2454 0.780248 14.1443C0.507348 14.0432 0.278369 13.8263 0.1401 13.5379C0.0018314 13.2494 -0.0352895 12.9113 0.0363225 12.5925L0.0768225 12.4491L3.8107 1.426C3.95269 1.00597 4.20196 0.645042 4.5258 0.390562C4.84963 0.136081 5.2329 -6.01062e-05 5.62532 4.10462e-08ZM16.3128 7.75C15.8653 7.75 15.436 7.95413 15.1196 8.31748C14.8031 8.68083 14.6253 9.17364 14.6253 9.6875C14.6253 10.2014 14.8031 10.6942 15.1196 11.0575C15.436 11.4209 15.8653 11.625 16.3128 11.625C16.7604 11.625 17.1896 11.4209 17.5061 11.0575C17.8225 10.6942 18.0003 10.2014 18.0003 9.6875C18.0003 9.17364 17.8225 8.68083 17.5061 8.31748C17.1896 7.95413 16.7604 7.75 16.3128 7.75ZM5.62532 3.19429L4.08295 7.75H7.16882L5.62532 3.19429Z" fill="black"/>
</svg>
