<svg width="25" height="26" viewBox="0 0 25 26" fill="none" xmlns="http://www.w3.org/2000/svg">
<path d="M12.8926 2H4.17852C3.60074 2 3.04662 2.22952 2.63807 2.63807C2.22952 3.04662 2 3.60074 2 4.17852V10.7141C2 11.2918 2.22952 11.846 2.63807 12.2545C3.04662 12.6631 3.60074 12.8926 4.17852 12.8926H5.19153C5.5501 12.8925 5.90313 12.981 6.21932 13.1501C6.5355 13.3192 6.80505 13.5638 7.00405 13.862L7.62929 14.801C7.72876 14.9502 7.86353 15.0725 8.02162 15.1571C8.17971 15.2417 8.35625 15.2859 8.53555 15.2859C8.71486 15.2859 8.89139 15.2417 9.04948 15.1571C9.20758 15.0725 9.34234 14.9502 9.44182 14.801L10.0671 13.8631C10.2659 13.5646 10.5354 13.3199 10.8516 13.1506C11.1678 12.9813 11.5209 12.8927 11.8796 12.8926H12.8926C13.4704 12.8926 14.0245 12.6631 14.433 12.2545C14.8416 11.846 15.0711 11.2918 15.0711 10.7141V4.17852C15.0711 3.60074 14.8416 3.04662 14.433 2.63807C14.0245 2.22952 13.4704 2 12.8926 2Z" fill="black" stroke="black" stroke-width="2.42058" stroke-linecap="round" stroke-linejoin="round"/>
<path d="M19.4289 10.7144H21.6074C22.1852 10.7144 22.7393 10.9439 23.1479 11.3524C23.5564 11.761 23.7859 12.3151 23.7859 12.8929V19.4284C23.7859 20.0062 23.5564 20.5603 23.1479 20.9689C22.7393 21.3774 22.1852 21.6069 21.6074 21.6069H20.5944C20.2359 21.6069 19.8828 21.6953 19.5666 21.8645C19.2505 22.0336 18.9809 22.2781 18.7819 22.5764L18.1567 23.5153C18.0572 23.6645 17.9224 23.7868 17.7643 23.8714C17.6062 23.956 17.4297 24.0003 17.2504 24.0003C17.0711 24.0003 16.8946 23.956 16.7365 23.8714C16.5784 23.7868 16.4436 23.6645 16.3441 23.5153L15.7189 22.5775C15.52 22.279 15.2505 22.0342 14.9343 21.8649C14.6181 21.6956 14.265 21.607 13.9064 21.6069H12.8934C12.3156 21.6069 11.7615 21.3774 11.3529 20.9689C10.9444 20.5603 10.7148 20.0062 10.7148 19.4284V18.3392" stroke="black" stroke-width="2.42058" stroke-linecap="round" stroke-linejoin="round"/>
</svg>
