<svg width="18" height="22" viewBox="0 0 18 22" fill="none" xmlns="http://www.w3.org/2000/svg">
<path d="M7.5 4C8.60457 4 9.5 3.10457 9.5 2C9.5 0.89543 8.60457 0 7.5 0C6.39543 0 5.5 0.89543 5.5 2C5.5 3.10457 6.39543 4 7.5 4Z" fill="black"/>
<path d="M8.13 5.61977C7.96 5.26977 7.69 4.96977 7.33 4.76977C7.03759 4.60052 6.70673 4.50891 6.3689 4.50366C6.03108 4.49841 5.69753 4.57969 5.4 4.73977V4.72977L0 7.79977V12.4998H2V8.95977L3.5 8.10977C3.18 9.20977 3 10.3498 3 11.4998V16.8298L0.4 20.2998L2 21.4998L5 17.4998L5.22 13.9598L7 16.4998V21.4998H9V14.9998L7.03 12.1898C6.99 11.6698 6.89 10.4298 7.48 8.78977C8.23 9.92977 9.36 10.7698 10.68 11.1998L16.63 21.4998L17.5 20.9998L12.02 11.4998H13V9.49977C12.51 9.49977 10.12 9.66977 8.92 7.28977" fill="black"/>
</svg>
