<svg width="18" height="18" viewBox="0 0 18 18" fill="none" xmlns="http://www.w3.org/2000/svg">
<path d="M15.8571 8.57143H14.5714V5.14286C14.5714 4.6882 14.3908 4.25216 14.0693 3.93067C13.7478 3.60918 13.3118 3.42857 12.8571 3.42857H9.42857V2.14286C9.42857 1.57454 9.20281 1.02949 8.80094 0.627628C8.39908 0.225765 7.85404 0 7.28571 0C6.71739 0 6.17235 0.225765 5.77049 0.627628C5.36862 1.02949 5.14286 1.57454 5.14286 2.14286V3.42857H1.71429C1.25963 3.42857 0.823594 3.60918 0.502103 3.93067C0.180612 4.25216 0 4.6882 0 5.14286V8.4H1.28571C2.57143 8.4 3.6 9.42857 3.6 10.7143C3.6 12 2.57143 13.0286 1.28571 13.0286H0V16.2857C0 16.7404 0.180612 17.1764 0.502103 17.4979C0.823594 17.8194 1.25963 18 1.71429 18H4.97143V16.7143C4.97143 15.4286 6 14.4 7.28571 14.4C8.57143 14.4 9.6 15.4286 9.6 16.7143V18H12.8571C13.3118 18 13.7478 17.8194 14.0693 17.4979C14.3908 17.1764 14.5714 16.7404 14.5714 16.2857V12.8571H15.8571C16.4255 12.8571 16.9705 12.6314 17.3724 12.2295C17.7742 11.8277 18 11.2826 18 10.7143C18 10.146 17.7742 9.60092 17.3724 9.19906C16.9705 8.79719 16.4255 8.57143 15.8571 8.57143Z" fill="black"/>
</svg>
