<svg width="17" height="14" viewBox="0 0 17 14" fill="none" xmlns="http://www.w3.org/2000/svg">
<path d="M10.5913 14.0001V8.07289H8.45508V6.70508H14.0092V8.07289H11.873V14.0001H10.5913ZM14.4365 14.0001V10.3526H13.1548V8.98477H17V10.3526H15.7182V14.0001H14.4365Z" fill="black"/>
<path fill-rule="evenodd" clip-rule="evenodd" d="M0 0.909759C0 0.668476 0.0912854 0.437075 0.253774 0.266463C0.416263 0.0958496 0.636645 0 0.866438 0H4.33219C7.68184 0 10.3973 2.85119 10.3973 6.36832C10.3973 9.88544 7.68184 12.7366 4.33219 12.7366H0.866438C0.636645 12.7366 0.416263 12.6408 0.253774 12.4702C0.0912854 12.2996 0 12.0682 0 11.8269V0.909759ZM1.73288 1.81952V10.9171H4.33219C6.72486 10.9171 8.66438 8.88062 8.66438 6.36832C8.66438 3.85602 6.72486 1.81952 4.33219 1.81952H1.73288Z" fill="black"/>
</svg>
