<svg width="20" height="21" viewBox="0 0 20 21" fill="none" xmlns="http://www.w3.org/2000/svg">
<path d="M8 2V11H15L17 17H19M8 2C8 1.73478 8.10536 1.48043 8.2929 1.29289C8.48043 1.10536 8.73479 1 9 1C9.26522 1 9.51957 1.10536 9.70711 1.29289C9.89465 1.48043 10 1.73478 10 2C10 2.26522 9.89465 2.51957 9.70711 2.70711C9.51957 2.89464 9.26522 3 9 3C8.73479 3 8.48043 2.89464 8.2929 2.70711C8.10536 2.51957 8 2.26522 8 2ZM13 8H7C5.81331 8 4.65328 8.35189 3.66658 9.01118C2.67989 9.67047 1.91085 10.6075 1.45673 11.7039C1.0026 12.8003 0.88378 14.0067 1.11529 15.1705C1.3468 16.3344 1.91825 17.4035 2.75736 18.2426C3.59648 19.0818 4.66558 19.6532 5.82946 19.8847C6.99335 20.1162 8.19975 19.9974 9.2961 19.5433C10.3925 19.0892 11.3295 18.3201 11.9888 17.3334C12.6481 16.3467 13 15.1867 13 14" stroke="black" stroke-width="2" stroke-linecap="round" stroke-linejoin="round"/>
</svg>
